<svg width="92" height="48" viewBox="0 0 92 48" fill="none" xmlns="http://www.w3.org/2000/svg">
<path d="M32.9549 0.545454H35.0685V12.1023C35.0685 13.2955 34.7873 14.3608 34.2248 15.2983C33.668 16.2301 32.881 16.9659 31.864 17.5057C30.8469 18.0398 29.6538 18.3068 28.2844 18.3068C26.9151 18.3068 25.7219 18.0398 24.7049 17.5057C23.6879 16.9659 22.8981 16.2301 22.3356 15.2983C21.7788 14.3608 21.5004 13.2955 21.5004 12.1023V0.545454H23.614V11.9318C23.614 12.7841 23.8015 13.5426 24.1765 14.2074C24.5515 14.8665 25.0856 15.3864 25.7788 15.767C26.4776 16.142 27.3129 16.3295 28.2844 16.3295C29.256 16.3295 30.0913 16.142 30.7901 15.767C31.489 15.3864 32.0231 14.8665 32.3924 14.2074C32.7674 13.5426 32.9549 12.7841 32.9549 11.9318V0.545454ZM48.2894 7.84091L46.4826 8.35227C46.369 8.05114 46.2013 7.75852 45.9798 7.47443C45.7638 7.18466 45.4684 6.94602 45.0934 6.75852C44.7184 6.57102 44.2383 6.47727 43.6531 6.47727C42.8519 6.47727 42.1843 6.66193 41.6502 7.03125C41.1218 7.39489 40.8576 7.85795 40.8576 8.42045C40.8576 8.92045 41.0394 9.31534 41.4031 9.60511C41.7667 9.89489 42.3349 10.1364 43.1076 10.3295L45.0508 10.8068C46.2212 11.0909 47.0934 11.5256 47.6673 12.1108C48.2411 12.6903 48.5281 13.4375 48.5281 14.3523C48.5281 15.1023 48.3121 15.7727 47.8803 16.3636C47.4542 16.9545 46.8576 17.4205 46.0906 17.7614C45.3235 18.1023 44.4315 18.2727 43.4144 18.2727C42.0792 18.2727 40.9741 17.983 40.0991 17.4034C39.2241 16.8239 38.6701 15.9773 38.4371 14.8636L40.3462 14.3864C40.5281 15.0909 40.8718 15.6193 41.3775 15.9716C41.8888 16.3239 42.5565 16.5 43.3803 16.5C44.3178 16.5 45.0621 16.3011 45.6133 15.9034C46.1701 15.5 46.4485 15.017 46.4485 14.4545C46.4485 14 46.2894 13.6193 45.9712 13.3125C45.6531 13 45.1644 12.767 44.5053 12.6136L42.3235 12.1023C41.1246 11.8182 40.244 11.3778 39.6815 10.7812C39.1246 10.179 38.8462 9.42614 38.8462 8.52273C38.8462 7.78409 39.0536 7.13068 39.4684 6.5625C39.8888 5.99432 40.4599 5.5483 41.1815 5.22443C41.9087 4.90057 42.7326 4.73864 43.6531 4.73864C44.9485 4.73864 45.9656 5.02273 46.7042 5.59091C47.4485 6.15909 47.9769 6.90909 48.2894 7.84091ZM57.0444 18.2727C55.783 18.2727 54.695 17.9943 53.7802 17.4375C52.8711 16.875 52.1694 16.0909 51.6751 15.0852C51.1864 14.0739 50.9421 12.8977 50.9421 11.5568C50.9421 10.2159 51.1864 9.03409 51.6751 8.01136C52.1694 6.98295 52.8569 6.18182 53.7376 5.60795C54.6239 5.02841 55.658 4.73864 56.8398 4.73864C57.5217 4.73864 58.195 4.85227 58.8597 5.07954C59.5245 5.30682 60.1296 5.67614 60.6751 6.1875C61.2205 6.69318 61.6552 7.36364 61.979 8.19886C62.3029 9.03409 62.4648 10.0625 62.4648 11.2841V12.1364H52.3739V10.3977H60.4194C60.4194 9.65909 60.2717 9 59.9762 8.42045C59.6864 7.84091 59.2717 7.38352 58.7319 7.0483C58.1978 6.71307 57.5671 6.54545 56.8398 6.54545C56.0387 6.54545 55.3455 6.74432 54.7603 7.14205C54.1808 7.53409 53.7347 8.04545 53.4222 8.67614C53.1097 9.30682 52.9535 9.98295 52.9535 10.7045V11.8636C52.9535 12.8523 53.1239 13.6903 53.4648 14.3778C53.8114 15.0597 54.2915 15.5795 54.9052 15.9375C55.5188 16.2898 56.2319 16.4659 57.0444 16.4659C57.5728 16.4659 58.0501 16.392 58.4762 16.2443C58.908 16.0909 59.2802 15.8636 59.5927 15.5625C59.9052 15.2557 60.1467 14.875 60.3171 14.4205L62.2603 14.9659C62.0558 15.625 61.712 16.2045 61.229 16.7045C60.7461 17.1989 60.1495 17.5852 59.4393 17.8636C58.729 18.1364 57.9308 18.2727 57.0444 18.2727ZM65.5245 18V4.90909H67.4677V6.88636H67.604C67.8427 6.23864 68.2745 5.71307 68.8995 5.30966C69.5245 4.90625 70.229 4.70454 71.0131 4.70454C71.1609 4.70454 71.3455 4.70739 71.5671 4.71307C71.7887 4.71875 71.9563 4.72727 72.07 4.73864V6.78409C72.0018 6.76705 71.8455 6.74148 71.6012 6.70739C71.3626 6.66761 71.1097 6.64773 70.8427 6.64773C70.2063 6.64773 69.6381 6.78125 69.1381 7.0483C68.6438 7.30966 68.2518 7.6733 67.962 8.1392C67.6779 8.59943 67.5359 9.125 67.5359 9.71591V18H65.5245ZM0.00816774 47V29.5455H10.4741V31.4205H2.1218V37.3182H9.68999V39.1932H2.1218V47H0.00816774ZM18.1786 47.2727C16.9968 47.2727 15.9599 46.9915 15.0678 46.429C14.1815 45.8665 13.4883 45.0795 12.9883 44.0682C12.494 43.0568 12.2468 41.875 12.2468 40.5227C12.2468 39.1591 12.494 37.9687 12.9883 36.9517C13.4883 35.9347 14.1815 35.1449 15.0678 34.5824C15.9599 34.0199 16.9968 33.7386 18.1786 33.7386C19.3604 33.7386 20.3945 34.0199 21.2809 34.5824C22.1729 35.1449 22.8661 35.9347 23.3604 36.9517C23.8604 37.9687 24.1104 39.1591 24.1104 40.5227C24.1104 41.875 23.8604 43.0568 23.3604 44.0682C22.8661 45.0795 22.1729 45.8665 21.2809 46.429C20.3945 46.9915 19.3604 47.2727 18.1786 47.2727ZM18.1786 45.4659C19.0763 45.4659 19.815 45.2358 20.3945 44.7756C20.9741 44.3153 21.4031 43.7102 21.6815 42.9602C21.9599 42.2102 22.0991 41.3977 22.0991 40.5227C22.0991 39.6477 21.9599 38.8324 21.6815 38.0767C21.4031 37.321 20.9741 36.7102 20.3945 36.2443C19.815 35.7784 19.0763 35.5455 18.1786 35.5455C17.2809 35.5455 16.5423 35.7784 15.9627 36.2443C15.3832 36.7102 14.9542 37.321 14.6758 38.0767C14.3974 38.8324 14.2582 39.6477 14.2582 40.5227C14.2582 41.3977 14.3974 42.2102 14.6758 42.9602C14.9542 43.7102 15.3832 44.3153 15.9627 44.7756C16.5423 45.2358 17.2809 45.4659 18.1786 45.4659ZM32.4989 47.2727C31.2717 47.2727 30.2148 46.983 29.3285 46.4034C28.4421 45.8239 27.7603 45.0256 27.283 44.0085C26.8058 42.9915 26.5671 41.8295 26.5671 40.5227C26.5671 39.1932 26.8114 38.0199 27.3001 37.0028C27.7944 35.9801 28.4819 35.1818 29.3626 34.608C30.2489 34.0284 31.283 33.7386 32.4648 33.7386C33.3853 33.7386 34.2148 33.9091 34.9535 34.25C35.6921 34.5909 36.2972 35.0682 36.7688 35.6818C37.2404 36.2955 37.533 37.0114 37.6467 37.8295H35.6353C35.4819 37.233 35.141 36.7045 34.6126 36.2443C34.0898 35.7784 33.3853 35.5455 32.4989 35.5455C31.7148 35.5455 31.0273 35.75 30.4364 36.1591C29.8512 36.5625 29.3938 37.1335 29.0643 37.8722C28.7404 38.6051 28.5785 39.4659 28.5785 40.4545C28.5785 41.4659 28.7376 42.3466 29.0558 43.0966C29.3796 43.8466 29.8342 44.429 30.4194 44.8438C31.0103 45.2585 31.7035 45.4659 32.4989 45.4659C33.0217 45.4659 33.4961 45.375 33.9222 45.1932C34.3484 45.0114 34.7092 44.75 35.0046 44.4091C35.3001 44.0682 35.5103 43.6591 35.6353 43.1818H37.6467C37.533 43.9545 37.2518 44.6506 36.8029 45.2699C36.3597 45.8835 35.7717 46.3722 35.0387 46.7358C34.3114 47.0938 33.4648 47.2727 32.4989 47.2727ZM48.837 41.6477V33.9091H50.8484V47H48.837V44.7841H48.7006C48.3938 45.4489 47.9165 46.0142 47.2688 46.4801C46.6211 46.9403 45.8029 47.1705 44.8143 47.1705C43.9961 47.1705 43.2688 46.9915 42.6325 46.6335C41.9961 46.2699 41.4961 45.7244 41.1325 44.9972C40.7688 44.2642 40.587 43.3409 40.587 42.2273V33.9091H42.5984V42.0909C42.5984 43.0455 42.8654 43.8068 43.3995 44.375C43.9393 44.9432 44.6268 45.2273 45.462 45.2273C45.962 45.2273 46.4705 45.0994 46.9876 44.8438C47.5103 44.5881 47.9478 44.196 48.3001 43.6676C48.658 43.1392 48.837 42.4659 48.837 41.6477ZM63.805 36.8409L61.9982 37.3523C61.8846 37.0511 61.717 36.7585 61.4954 36.4744C61.2795 36.1847 60.984 35.946 60.609 35.7585C60.234 35.571 59.7539 35.4773 59.1687 35.4773C58.3675 35.4773 57.6999 35.6619 57.1658 36.0312C56.6374 36.3949 56.3732 36.858 56.3732 37.4205C56.3732 37.9205 56.555 38.3153 56.9187 38.6051C57.2823 38.8949 57.8505 39.1364 58.6232 39.3295L60.5664 39.8068C61.7369 40.0909 62.609 40.5256 63.1829 41.1108C63.7567 41.6903 64.0437 42.4375 64.0437 43.3523C64.0437 44.1023 63.8278 44.7727 63.396 45.3636C62.9698 45.9545 62.3732 46.4205 61.6062 46.7614C60.8391 47.1023 59.9471 47.2727 58.93 47.2727C57.5948 47.2727 56.4897 46.983 55.6147 46.4034C54.7397 45.8239 54.1857 44.9773 53.9528 43.8636L55.8619 43.3864C56.0437 44.0909 56.3874 44.6193 56.8931 44.9716C57.4045 45.3239 58.0721 45.5 58.896 45.5C59.8335 45.5 60.5778 45.3011 61.1289 44.9034C61.6857 44.5 61.9641 44.017 61.9641 43.4545C61.9641 43 61.805 42.6193 61.4869 42.3125C61.1687 42 60.68 41.767 60.021 41.6136L57.8391 41.1023C56.6403 40.8182 55.7596 40.3778 55.1971 39.7812C54.6403 39.179 54.3619 38.4261 54.3619 37.5227C54.3619 36.7841 54.5692 36.1307 54.984 35.5625C55.4045 34.9943 55.9755 34.5483 56.6971 34.2244C57.4244 33.9006 58.2482 33.7386 59.1687 33.7386C60.4641 33.7386 61.4812 34.0227 62.2198 34.5909C62.9641 35.1591 63.4925 35.9091 63.805 36.8409ZM72.56 47.2727C71.2987 47.2727 70.2106 46.9943 69.2958 46.4375C68.3867 45.875 67.685 45.0909 67.1907 44.0852C66.7021 43.0739 66.4577 41.8977 66.4577 40.5568C66.4577 39.2159 66.7021 38.0341 67.1907 37.0114C67.685 35.983 68.3725 35.1818 69.2532 34.608C70.1396 34.0284 71.1737 33.7386 72.3555 33.7386C73.0373 33.7386 73.7106 33.8523 74.3754 34.0795C75.0401 34.3068 75.6452 34.6761 76.1907 35.1875C76.7362 35.6932 77.1708 36.3636 77.4947 37.1989C77.8185 38.0341 77.9805 39.0625 77.9805 40.2841V41.1364H67.8896V39.3977H75.935C75.935 38.6591 75.7873 38 75.4918 37.4205C75.2021 36.8409 74.7873 36.3835 74.2475 36.0483C73.7134 35.7131 73.0827 35.5455 72.3555 35.5455C71.5543 35.5455 70.8612 35.7443 70.2759 36.142C69.6964 36.5341 69.2504 37.0455 68.9379 37.6761C68.6254 38.3068 68.4691 38.983 68.4691 39.7045V40.8636C68.4691 41.8523 68.6396 42.6903 68.9805 43.3778C69.3271 44.0597 69.8072 44.5795 70.4208 44.9375C71.0344 45.2898 71.7475 45.4659 72.56 45.4659C73.0884 45.4659 73.5657 45.392 73.9918 45.2443C74.4237 45.0909 74.7958 44.8636 75.1083 44.5625C75.4208 44.2557 75.6623 43.875 75.8327 43.4205L77.7759 43.9659C77.5714 44.625 77.2276 45.2045 76.7447 45.7045C76.2617 46.1989 75.6651 46.5852 74.9549 46.8636C74.2447 47.1364 73.4464 47.2727 72.56 47.2727ZM85.9833 47.2727C84.8924 47.2727 83.9293 46.9972 83.0941 46.446C82.2589 45.8892 81.6055 45.1051 81.1339 44.0938C80.6623 43.0767 80.4265 41.875 80.4265 40.4886C80.4265 39.1136 80.6623 37.9205 81.1339 36.9091C81.6055 35.8977 82.2617 35.1165 83.1026 34.5653C83.9435 34.0142 84.9151 33.7386 86.0174 33.7386C86.8697 33.7386 87.543 33.8807 88.0373 34.1648C88.5373 34.4432 88.918 34.7614 89.1793 35.1193C89.4464 35.4716 89.6538 35.7614 89.8015 35.9886H89.9719V29.5455H91.9833V47H90.0401V44.9886H89.8015C89.6538 45.2273 89.4435 45.5284 89.1708 45.892C88.8981 46.25 88.5089 46.571 88.0032 46.8551C87.4975 47.1335 86.8242 47.2727 85.9833 47.2727ZM86.256 45.4659C87.0629 45.4659 87.7447 45.2557 88.3015 44.8352C88.8583 44.4091 89.2816 43.821 89.5714 43.071C89.8612 42.3153 90.006 41.4432 90.006 40.4545C90.006 39.4773 89.864 38.6222 89.5799 37.8892C89.2958 37.1506 88.8754 36.5767 88.3185 36.1676C87.7617 35.7528 87.0742 35.5455 86.256 35.5455C85.4038 35.5455 84.6935 35.7642 84.1254 36.2017C83.5629 36.6335 83.1396 37.2216 82.8555 37.9659C82.5771 38.7045 82.4379 39.5341 82.4379 40.4545C82.4379 41.3864 82.5799 42.233 82.864 42.9943C83.1538 43.75 83.5799 44.3523 84.1424 44.8011C84.7106 45.2443 85.4151 45.4659 86.256 45.4659Z" fill="white"/>
</svg>
